<svg width="720" height="720" viewBox="0 0 720 720" fill="none" xmlns="http://www.w3.org/2000/svg">
  <rect width="720" height="720" rx="48" fill="#F8FAFC"/>
  <rect x="80" y="90" width="560" height="170" rx="28" fill="white" stroke="#E2E8F0"/>
  <rect x="120" y="130" width="220" height="14" rx="7" fill="#0B1F3B" opacity="0.12"/>
  <rect x="120" y="158" width="280" height="10" rx="5" fill="#0B1F3B" opacity="0.08"/>
  <rect x="120" y="186" width="180" height="10" rx="5" fill="#0B1F3B" opacity="0.08"/>
  <rect x="430" y="130" width="170" height="70" rx="16" fill="#2D6AE6" opacity="0.14"/>
  <rect x="80" y="290" width="270" height="310" rx="28" fill="white" stroke="#E2E8F0"/>
  <rect x="120" y="330" width="160" height="12" rx="6" fill="#0B1F3B" opacity="0.12"/>
  <rect x="120" y="358" width="200" height="10" rx="5" fill="#0B1F3B" opacity="0.08"/>
  <rect x="120" y="390" width="190" height="80" rx="16" fill="#F2C94C" opacity="0.28"/>
  <rect x="120" y="486" width="200" height="80" rx="16" fill="#F05D7B" opacity="0.18"/>
  <rect x="370" y="290" width="270" height="310" rx="28" fill="white" stroke="#E2E8F0"/>
  <rect x="410" y="330" width="170" height="12" rx="6" fill="#0B1F3B" opacity="0.12"/>
  <rect x="410" y="358" width="200" height="10" rx="5" fill="#0B1F3B" opacity="0.08"/>
  <rect x="410" y="390" width="200" height="100" rx="18" fill="#2D6AE6" opacity="0.16"/>
  <rect x="410" y="506" width="160" height="70" rx="16" fill="#F2C94C" opacity="0.22"/>
  <circle cx="600" cy="140" r="36" fill="#F05D7B" opacity="0.22"/>
  <circle cx="120" cy="640" r="28" fill="#2D6AE6" opacity="0.16"/>
</svg>
