<svg width="960" height="720" viewBox="0 0 960 720" fill="none" xmlns="http://www.w3.org/2000/svg">
  <rect width="960" height="720" rx="48" fill="#F8FAFC"/>
  <circle cx="760" cy="140" r="90" fill="#2D6AE6" opacity="0.15"/>
  <circle cx="160" cy="620" r="110" fill="#F2C94C" opacity="0.2"/>
  <circle cx="840" cy="560" r="70" fill="#F05D7B" opacity="0.18"/>
  <rect x="80" y="80" width="520" height="360" rx="28" fill="white" stroke="#E2E8F0"/>
  <rect x="120" y="120" width="220" height="20" rx="10" fill="#0B1F3B" opacity="0.12"/>
  <rect x="120" y="155" width="300" height="12" rx="6" fill="#0B1F3B" opacity="0.08"/>
  <rect x="120" y="190" width="380" height="12" rx="6" fill="#0B1F3B" opacity="0.08"/>
  <rect x="120" y="240" width="180" height="120" rx="18" fill="#2D6AE6" opacity="0.12"/>
  <rect x="320" y="240" width="250" height="60" rx="16" fill="#F2C94C" opacity="0.3"/>
  <rect x="320" y="310" width="250" height="50" rx="16" fill="#F05D7B" opacity="0.18"/>
  <rect x="620" y="120" width="260" height="220" rx="24" fill="white" stroke="#E2E8F0"/>
  <rect x="650" y="150" width="180" height="14" rx="7" fill="#0B1F3B" opacity="0.12"/>
  <rect x="650" y="178" width="220" height="10" rx="5" fill="#0B1F3B" opacity="0.08"/>
  <rect x="650" y="210" width="200" height="90" rx="18" fill="#2D6AE6" opacity="0.14"/>
  <rect x="620" y="380" width="260" height="200" rx="24" fill="white" stroke="#E2E8F0"/>
  <rect x="650" y="410" width="160" height="12" rx="6" fill="#0B1F3B" opacity="0.12"/>
  <rect x="650" y="438" width="200" height="10" rx="5" fill="#0B1F3B" opacity="0.08"/>
  <rect x="650" y="470" width="210" height="70" rx="16" fill="#F2C94C" opacity="0.22"/>
  <rect x="120" y="460" width="420" height="120" rx="24" fill="white" stroke="#E2E8F0"/>
  <circle cx="170" cy="520" r="32" fill="#2D6AE6" opacity="0.18"/>
  <rect x="220" y="495" width="180" height="12" rx="6" fill="#0B1F3B" opacity="0.12"/>
  <rect x="220" y="520" width="260" height="10" rx="5" fill="#0B1F3B" opacity="0.08"/>
</svg>
