<svg width="720" height="720" viewBox="0 0 720 720" fill="none" xmlns="http://www.w3.org/2000/svg">
  <rect width="720" height="720" rx="48" fill="#F8FAFC"/>
  <rect x="90" y="110" width="540" height="190" rx="28" fill="white" stroke="#E2E8F0"/>
  <circle cx="150" cy="190" r="36" fill="#2D6AE6" opacity="0.18"/>
  <rect x="210" y="160" width="220" height="12" rx="6" fill="#0B1F3B" opacity="0.12"/>
  <rect x="210" y="186" width="280" height="10" rx="5" fill="#0B1F3B" opacity="0.08"/>
  <rect x="210" y="210" width="250" height="10" rx="5" fill="#0B1F3B" opacity="0.08"/>
  <rect x="90" y="330" width="260" height="260" rx="28" fill="white" stroke="#E2E8F0"/>
  <circle cx="150" cy="400" r="30" fill="#F2C94C" opacity="0.32"/>
  <rect x="200" y="384" width="120" height="10" rx="5" fill="#0B1F3B" opacity="0.12"/>
  <rect x="200" y="406" width="150" height="10" rx="5" fill="#0B1F3B" opacity="0.08"/>
  <rect x="120" y="450" width="200" height="90" rx="18" fill="#2D6AE6" opacity="0.14"/>
  <rect x="370" y="330" width="260" height="260" rx="28" fill="white" stroke="#E2E8F0"/>
  <circle cx="430" cy="400" r="30" fill="#F05D7B" opacity="0.22"/>
  <rect x="480" y="384" width="120" height="10" rx="5" fill="#0B1F3B" opacity="0.12"/>
  <rect x="480" y="406" width="150" height="10" rx="5" fill="#0B1F3B" opacity="0.08"/>
  <rect x="400" y="450" width="200" height="90" rx="18" fill="#F2C94C" opacity="0.26"/>
  <circle cx="580" cy="140" r="40" fill="#2D6AE6" opacity="0.12"/>
  <circle cx="120" cy="640" r="32" fill="#F05D7B" opacity="0.16"/>
</svg>
